<svg xmlns="http://www.w3.org/2000/svg" width="480" height="540" viewBox="0 0 480 540">
  <rect width="480" height="540" rx="16" fill="#f1f3f5"/>
  <rect x="24" y="24" width="432" height="492" rx="12" fill="#fff" stroke="#dee2e6" stroke-width="1"/>
  <!-- Header -->
  <rect x="48" y="44" width="120" height="16" rx="4" fill="#4c6ef5" opacity="0.2"/>
  <rect x="48" y="44" width="120" height="16" rx="4" fill="none" stroke="#4c6ef5" stroke-width="1" opacity="0.3"/>
  <text x="108" y="56" text-anchor="middle" font-family="sans-serif" font-size="11" fill="#4c6ef5">AI-ассистент</text>
  <!-- User message -->
  <rect x="180" y="80" width="252" height="44" rx="10" fill="#4c6ef5"/>
  <rect x="196" y="94" width="180" height="10" rx="3" fill="#fff" opacity="0.8"/>
  <rect x="220" y="108" width="100" height="8" rx="3" fill="#fff" opacity="0.5"/>
  <!-- AI response -->
  <rect x="48" y="140" width="320" height="120" rx="10" fill="#f8f9fa" stroke="#e9ecef" stroke-width="1"/>
  <rect x="68" y="158" width="240" height="10" rx="3" fill="#495057"/>
  <rect x="68" y="176" width="280" height="10" rx="3" fill="#868e96"/>
  <rect x="68" y="194" width="200" height="10" rx="3" fill="#868e96"/>
  <!-- Bullet items -->
  <circle cx="78" cy="222" r="3" fill="#4c6ef5"/>
  <rect x="90" y="218" width="180" height="8" rx="3" fill="#495057"/>
  <circle cx="78" cy="238" r="3" fill="#4c6ef5"/>
  <rect x="90" y="234" width="160" height="8" rx="3" fill="#495057"/>
  <!-- User message 2 -->
  <rect x="220" y="280" width="212" height="36" rx="10" fill="#4c6ef5"/>
  <rect x="236" y="292" width="160" height="10" rx="3" fill="#fff" opacity="0.8"/>
  <!-- AI response 2 -->
  <rect x="48" y="332" width="300" height="100" rx="10" fill="#f8f9fa" stroke="#e9ecef" stroke-width="1"/>
  <rect x="68" y="350" width="260" height="10" rx="3" fill="#495057"/>
  <rect x="68" y="368" width="220" height="10" rx="3" fill="#868e96"/>
  <circle cx="78" cy="396" r="3" fill="#40c057"/>
  <rect x="90" y="392" width="200" height="8" rx="3" fill="#495057"/>
  <circle cx="78" cy="412" r="3" fill="#40c057"/>
  <rect x="90" y="408" width="180" height="8" rx="3" fill="#495057"/>
  <!-- Input -->
  <rect x="48" y="456" width="360" height="40" rx="8" fill="#f8f9fa" stroke="#dee2e6" stroke-width="1"/>
  <rect x="68" y="472" width="120" height="10" rx="3" fill="#ced4da"/>
  <rect x="376" y="464" width="24" height="24" rx="6" fill="#4c6ef5"/>
  <text x="240" y="524" text-anchor="middle" font-family="sans-serif" font-size="12" fill="#adb5bd">Скриншот: AI-чат с рекомендациями</text>
</svg>
