<svg xmlns="http://www.w3.org/2000/svg" width="960" height="540" viewBox="0 0 960 540">
  <rect width="960" height="540" rx="16" fill="#f1f3f5"/>
  <rect x="32" y="32" width="896" height="476" rx="12" fill="#fff" stroke="#dee2e6" stroke-width="1"/>
  <!-- Sidebar -->
  <rect x="32" y="32" width="200" height="476" rx="12" fill="#f8f9fa"/>
  <rect x="52" y="60" width="120" height="16" rx="4" fill="#dee2e6"/>
  <rect x="52" y="100" width="160" height="12" rx="3" fill="#e9ecef"/>
  <rect x="52" y="124" width="160" height="12" rx="3" fill="#e9ecef"/>
  <rect x="52" y="168" width="100" height="10" rx="3" fill="#ced4da"/>
  <!-- Project items with colors -->
  <circle cx="62" cy="200" r="6" fill="#4c6ef5"/>
  <rect x="78" y="194" width="120" height="12" rx="3" fill="#495057"/>
  <rect x="178" y="194" width="24" height="12" rx="3" fill="#e9ecef"/>
  <circle cx="62" cy="228" r="6" fill="#fa5252"/>
  <rect x="78" y="222" width="100" height="12" rx="3" fill="#495057"/>
  <rect x="178" y="222" width="24" height="12" rx="3" fill="#e9ecef"/>
  <circle cx="62" cy="256" r="6" fill="#40c057"/>
  <rect x="78" y="250" width="140" height="12" rx="3" fill="#495057"/>
  <rect x="178" y="250" width="24" height="12" rx="3" fill="#e9ecef"/>
  <circle cx="62" cy="284" r="6" fill="#fab005"/>
  <rect x="78" y="278" width="110" height="12" rx="3" fill="#495057"/>
  <rect x="178" y="278" width="24" height="12" rx="3" fill="#e9ecef"/>
  <circle cx="62" cy="312" r="6" fill="#be4bdb"/>
  <rect x="78" y="306" width="130" height="12" rx="3" fill="#495057"/>
  <rect x="178" y="306" width="24" height="12" rx="3" fill="#e9ecef"/>
  <!-- Main: project cards -->
  <rect x="260" y="60" width="200" height="20" rx="4" fill="#dee2e6"/>
  <rect x="260" y="110" width="290" height="100" rx="10" fill="#f8f9fa" stroke="#e9ecef" stroke-width="1"/>
  <circle cx="284" cy="134" r="8" fill="#4c6ef5"/>
  <rect x="300" y="128" width="120" height="14" rx="3" fill="#495057"/>
  <rect x="284" y="156" width="100" height="10" rx="3" fill="#adb5bd"/>
  <rect x="284" y="178" width="60" height="16" rx="4" fill="#4c6ef5" opacity="0.15"/>
  <rect x="580" y="110" width="290" height="100" rx="10" fill="#f8f9fa" stroke="#e9ecef" stroke-width="1"/>
  <circle cx="604" cy="134" r="8" fill="#fa5252"/>
  <rect x="620" y="128" width="100" height="14" rx="3" fill="#495057"/>
  <rect x="604" y="156" width="80" height="10" rx="3" fill="#adb5bd"/>
  <rect x="604" y="178" width="60" height="16" rx="4" fill="#fa5252" opacity="0.15"/>
  <rect x="260" y="230" width="290" height="100" rx="10" fill="#f8f9fa" stroke="#e9ecef" stroke-width="1"/>
  <circle cx="284" cy="254" r="8" fill="#40c057"/>
  <rect x="300" y="248" width="140" height="14" rx="3" fill="#495057"/>
  <rect x="284" y="276" width="120" height="10" rx="3" fill="#adb5bd"/>
  <rect x="284" y="298" width="60" height="16" rx="4" fill="#40c057" opacity="0.15"/>
  <rect x="580" y="230" width="290" height="100" rx="10" fill="#f8f9fa" stroke="#e9ecef" stroke-width="1"/>
  <circle cx="604" cy="254" r="8" fill="#fab005"/>
  <rect x="620" y="248" width="110" height="14" rx="3" fill="#495057"/>
  <rect x="604" y="276" width="90" height="10" rx="3" fill="#adb5bd"/>
  <rect x="604" y="298" width="60" height="16" rx="4" fill="#fab005" opacity="0.15"/>
  <text x="480" y="480" text-anchor="middle" font-family="sans-serif" font-size="13" fill="#adb5bd">Скриншот: экран проектов с цветовыми метками</text>
</svg>
