<svg xmlns="http://www.w3.org/2000/svg" width="960" height="540" viewBox="0 0 960 540">
  <rect width="960" height="540" rx="16" fill="#f1f3f5"/>
  <rect x="32" y="32" width="896" height="476" rx="12" fill="#fff" stroke="#dee2e6" stroke-width="1"/>
  <!-- Header -->
  <rect x="60" y="56" width="140" height="20" rx="4" fill="#dee2e6"/>
  <rect x="60" y="86" width="200" height="14" rx="3" fill="#e9ecef"/>
  <!-- Year goals -->
  <rect x="60" y="120" width="840" height="80" rx="10" fill="#f8f9fa" stroke="#e9ecef" stroke-width="1"/>
  <rect x="84" y="140" width="180" height="14" rx="3" fill="#495057"/>
  <rect x="84" y="164" width="400" height="8" rx="4" fill="#e9ecef"/>
  <rect x="84" y="164" width="280" height="8" rx="4" fill="#4c6ef5" opacity="0.6"/>
  <text x="500" y="172" font-family="sans-serif" font-size="11" fill="#868e96">70%</text>
  <rect x="60" y="212" width="840" height="80" rx="10" fill="#f8f9fa" stroke="#e9ecef" stroke-width="1"/>
  <rect x="84" y="232" width="220" height="14" rx="3" fill="#495057"/>
  <rect x="84" y="256" width="400" height="8" rx="4" fill="#e9ecef"/>
  <rect x="84" y="256" width="160" height="8" rx="4" fill="#40c057" opacity="0.6"/>
  <text x="260" y="264" font-family="sans-serif" font-size="11" fill="#868e96">40%</text>
  <!-- Quarter goals -->
  <rect x="60" y="316" width="100" height="14" rx="3" fill="#ced4da"/>
  <rect x="60" y="344" width="400" height="64" rx="10" fill="#f8f9fa" stroke="#e9ecef" stroke-width="1"/>
  <rect x="84" y="360" width="160" height="12" rx="3" fill="#495057"/>
  <rect x="84" y="382" width="300" height="6" rx="3" fill="#e9ecef"/>
  <rect x="84" y="382" width="270" height="6" rx="3" fill="#be4bdb" opacity="0.5"/>
  <rect x="480" y="344" width="400" height="64" rx="10" fill="#f8f9fa" stroke="#e9ecef" stroke-width="1"/>
  <rect x="504" y="360" width="140" height="12" rx="3" fill="#495057"/>
  <rect x="504" y="382" width="300" height="6" rx="3" fill="#e9ecef"/>
  <rect x="504" y="382" width="150" height="6" rx="3" fill="#fa5252" opacity="0.5"/>
  <rect x="60" y="420" width="400" height="64" rx="10" fill="#f8f9fa" stroke="#e9ecef" stroke-width="1"/>
  <rect x="84" y="436" width="200" height="12" rx="3" fill="#495057"/>
  <rect x="84" y="458" width="300" height="6" rx="3" fill="#e9ecef"/>
  <rect x="84" y="458" width="300" height="6" rx="3" fill="#fab005" opacity="0.5"/>
  <text x="480" y="500" text-anchor="middle" font-family="sans-serif" font-size="13" fill="#adb5bd">Скриншот: годовые и квартальные цели с прогресс-барами</text>
</svg>
