<svg xmlns="http://www.w3.org/2000/svg" width="960" height="540" viewBox="0 0 960 540">
  <rect width="960" height="540" rx="16" fill="#f1f3f5"/>
  <rect x="32" y="32" width="896" height="476" rx="12" fill="#fff" stroke="#dee2e6" stroke-width="1"/>
  <!-- Sidebar -->
  <rect x="32" y="32" width="200" height="476" rx="12" fill="#f8f9fa"/>
  <rect x="52" y="60" width="120" height="16" rx="4" fill="#dee2e6"/>
  <rect x="52" y="100" width="160" height="12" rx="3" fill="#e9ecef"/>
  <rect x="52" y="124" width="160" height="12" rx="3" fill="#4c6ef5" opacity="0.2"/>
  <rect x="52" y="148" width="160" height="12" rx="3" fill="#e9ecef"/>
  <rect x="52" y="172" width="160" height="12" rx="3" fill="#e9ecef"/>
  <rect x="52" y="216" width="100" height="10" rx="3" fill="#ced4da"/>
  <rect x="52" y="240" width="160" height="12" rx="3" fill="#e9ecef"/>
  <rect x="52" y="264" width="160" height="12" rx="3" fill="#e9ecef"/>
  <rect x="52" y="288" width="160" height="12" rx="3" fill="#e9ecef"/>
  <!-- Main content -->
  <rect x="260" y="60" width="200" height="20" rx="4" fill="#dee2e6"/>
  <rect x="260" y="90" width="120" height="14" rx="3" fill="#e9ecef"/>
  <!-- Task items -->
  <rect x="260" y="130" width="640" height="48" rx="8" fill="#f8f9fa"/>
  <circle cx="284" cy="154" r="10" fill="none" stroke="#4c6ef5" stroke-width="2"/>
  <rect x="304" y="148" width="200" height="12" rx="3" fill="#495057"/>
  <rect x="260" y="190" width="640" height="48" rx="8" fill="#f8f9fa"/>
  <circle cx="284" cy="214" r="10" fill="none" stroke="#4c6ef5" stroke-width="2"/>
  <rect x="304" y="208" width="280" height="12" rx="3" fill="#495057"/>
  <rect x="260" y="250" width="640" height="48" rx="8" fill="#f8f9fa"/>
  <circle cx="284" cy="274" r="10" fill="none" stroke="#868e96" stroke-width="2"/>
  <rect x="304" y="268" width="160" height="12" rx="3" fill="#adb5bd"/>
  <line x1="304" y1="274" x2="464" y2="274" stroke="#adb5bd" stroke-width="1"/>
  <rect x="260" y="310" width="640" height="48" rx="8" fill="#f8f9fa"/>
  <circle cx="284" cy="334" r="10" fill="none" stroke="#4c6ef5" stroke-width="2"/>
  <rect x="304" y="328" width="240" height="12" rx="3" fill="#495057"/>
  <rect x="260" y="370" width="640" height="48" rx="8" fill="#f8f9fa"/>
  <circle cx="284" cy="394" r="10" fill="none" stroke="#4c6ef5" stroke-width="2"/>
  <rect x="304" y="388" width="180" height="12" rx="3" fill="#495057"/>
  <!-- Label -->
  <text x="480" y="480" text-anchor="middle" font-family="sans-serif" font-size="13" fill="#adb5bd">Скриншот: вид «Сегодня» со списком задач</text>
</svg>
